# xmcd
#
# Track frame offsets: 
#        150
#        6309
#        21386
#        41023
#        59923
#        73577
#        92204
#        111860
#        130589
#        157462
#        171834
#        187763
#
# Disc length: 2915 seconds
#
# Revision: 0
# Processed by: cddbd v1.5.2PL0 Copyright (c) Steve Scherf et al.
# Submitted via: ExactAudioCopy v0.99pb3
#
DISCID=ac0b610c
DTITLE=Sterling Kock - Slide Ruler
DYEAR=2011
DGENRE=Blues
TTITLE0=Slide RUler
TTITLE1=If You Wanna Rock and Roll
TTITLE2=Dimples
TTITLE3=Driving Wheel
TTITLE4=Sleepwalk
TTITLE5=Stop Messin' Around
TTITLE6=Done Somebody Wrong
TTITLE7=I'm A Bluesman
TTITLE8=Double Trouble
TTITLE9=Taylor's Rock
TTITLE10=One Way Out
TTITLE11=The Sun Will Shine
EXTD=
EXTT0=
EXTT1=
EXTT2=
EXTT3=
EXTT4=
EXTT5=
EXTT6=
EXTT7=
EXTT8=
EXTT9=
EXTT10=
EXTT11=
PLAYORDER=
